<svg width="324" height="95" viewBox="0 0 324 95" fill="none" xmlns="http://www.w3.org/2000/svg">
<path d="M101.461 30.6773C103.087 30.6773 104.383 31.13 105.35 32.0558C106.317 32.9611 106.79 34.1751 106.79 35.677C106.79 37.1996 106.297 38.4341 105.309 39.3394C104.321 40.2652 102.984 40.7179 101.317 40.7179H97.9019V45.1415H94.3424V30.6773H101.461ZM101.05 37.7345C101.749 37.7345 102.284 37.5493 102.675 37.179C103.066 36.8086 103.272 36.3149 103.272 35.6976C103.272 35.1009 103.066 34.6277 102.675 34.2574C102.264 33.887 101.729 33.7018 101.05 33.7018H97.9019V37.7139H101.05V37.7345Z" fill="#00426D"/>
<path d="M120.514 32.5496C122.016 34.0104 122.756 35.8004 122.756 37.9197C122.756 40.0183 122.016 41.8083 120.514 43.2692C119.012 44.73 117.201 45.4707 115.041 45.4707C112.88 45.4707 111.049 44.73 109.568 43.2692C108.066 41.8083 107.325 40.0183 107.325 37.9197C107.325 35.8004 108.066 34.0104 109.568 32.5496C111.049 31.0888 112.88 30.3481 115.041 30.3481C117.201 30.3481 119.032 31.0888 120.514 32.5496ZM118.003 40.9853C118.806 40.1829 119.197 39.1542 119.197 37.9402C119.197 36.7057 118.806 35.677 118.003 34.854C117.201 34.031 116.213 33.6195 115.041 33.6195C113.847 33.6195 112.86 34.031 112.078 34.854C111.275 35.677 110.885 36.7057 110.885 37.9402C110.885 39.1542 111.275 40.1829 112.078 40.9853C112.86 41.8083 113.847 42.1993 115.041 42.1993C116.213 42.1993 117.201 41.7878 118.003 40.9853Z" fill="#00426D"/>
<path d="M134.608 45.1415H123.909V30.6773H127.468V42.0347H134.608V45.1415Z" fill="#00426D"/>
<path d="M139.299 30.6773H135.739V45.1415H139.299V30.6773Z" fill="#00426D"/>
<path d="M148.372 33.7841V45.1415H144.813V33.7841H140.122V30.6773H153.063V33.7841H148.372Z" fill="#00426D"/>
<path d="M165.182 45.1415H153.886V30.6773H165.1V33.743H157.446V36.4589H164.482V39.3599H157.446V42.0758H165.182V45.1415Z" fill="#00426D"/>
<path d="M175.593 45.1415L170.861 39.6891H170.099V45.1415H166.54V30.6773H170.099V36.4177H170.634L175.552 30.6773H179.831L173.679 37.9197L180.263 45.1415H175.593Z" fill="#00426D"/>
<path d="M194.44 45.1415H191.497L184.173 36.7675V45.1415H180.593V30.6773H183.556L190.901 39.3188V30.6773H194.44V45.1415Z" fill="#00426D"/>
<path d="M199.666 30.6773H196.106V45.1415H199.666V30.6773Z" fill="#00426D"/>
<path d="M210.385 45.1415L205.653 39.6891H204.892V45.1415H201.312V30.6773H204.892V36.4177H205.406L210.344 30.6773H214.624L208.451 37.9197L215.056 45.1415H210.385Z" fill="#00426D"/>
<path d="M230.24 45.1415H219.541V30.6773H223.101V42.0347H230.24V45.1415Z" fill="#00426D"/>
<path d="M238.511 30.6773C240.136 30.6773 241.433 31.13 242.4 32.0558C243.367 32.9611 243.84 34.1751 243.84 35.677C243.84 37.1996 243.346 38.4341 242.359 39.3394C241.371 40.2652 240.034 40.7179 238.367 40.7179H234.952V45.1415H231.392V30.6773H238.511ZM238.1 37.7345C238.799 37.7345 239.334 37.5493 239.725 37.179C240.116 36.8086 240.322 36.3149 240.322 35.6976C240.322 35.1009 240.116 34.6277 239.725 34.2574C239.313 33.887 238.779 33.7018 238.1 33.7018H234.952V37.7139H238.1V37.7345Z" fill="#00426D"/>
<path d="M255.3 40.8001C255.3 42.1581 254.786 43.2897 253.778 44.1539C252.77 45.018 251.473 45.4501 249.889 45.4501C248.367 45.4501 247.091 45.0386 246.062 44.2156C245.033 43.3926 244.437 42.2815 244.293 40.8824L247.667 40.2652C247.77 40.9853 248.017 41.5408 248.387 41.9318C248.778 42.3227 249.272 42.5079 249.91 42.5079C250.506 42.5079 251.021 42.3433 251.412 42.0141C251.803 41.6849 251.988 41.2734 251.988 40.759C251.988 40.2652 251.823 39.8743 251.473 39.5862C251.124 39.2982 250.65 39.1541 250.033 39.1541H248.367V36.5205H249.889C250.486 36.5205 250.98 36.3765 251.309 36.0885C251.659 35.8004 251.823 35.4095 251.823 34.9363C251.823 34.4425 251.638 34.031 251.288 33.7224C250.938 33.4137 250.465 33.2697 249.889 33.2697C249.292 33.2697 248.778 33.4549 248.408 33.8458C248.017 34.2367 247.79 34.8128 247.729 35.5947L244.457 34.9774C244.622 33.5578 245.177 32.4261 246.165 31.5826C247.153 30.739 248.387 30.3275 249.869 30.3275C251.412 30.3275 252.667 30.7596 253.613 31.6031C254.58 32.4467 255.053 33.5372 255.053 34.8951C255.053 36.2325 254.539 37.1995 253.49 37.8168C254.704 38.4134 255.3 39.4216 255.3 40.8001Z" fill="#00426D"/>
<path d="M260.033 30.6773H256.473V45.1415H260.033V30.6773Z" fill="#00426D"/>
<path d="M62.8216 78.8022C62.4924 78.6376 61.8956 79.3783 61.6487 79.6458C61.5664 79.7281 61.4842 79.7898 61.4225 79.8927C61.3607 79.975 61.2784 80.0573 61.2167 80.119C61.1138 80.2219 61.0521 80.2836 60.9698 80.3453C60.8875 80.3865 60.8258 80.4276 60.7641 80.4276C60.5789 80.4688 60.332 80.3247 59.9822 80.0367C59.653 79.7486 59.4884 79.5017 59.4472 79.3577C59.4267 79.1314 59.6119 78.617 60.0439 77.8146C60.476 77.0328 60.6612 76.3949 60.5995 75.9011C60.5789 75.7159 60.5172 75.5719 60.4554 75.4896C60.3731 75.4073 60.2702 75.3662 60.1262 75.3867C60.0645 75.3867 59.9822 75.4896 59.8793 75.6748C59.797 75.86 59.653 76.1069 59.5296 76.4772C59.2827 77.1356 59.0769 77.65 58.9123 77.9998C58.7683 78.329 58.6654 78.5141 58.6037 78.5553C58.2333 78.6993 57.9864 78.8639 57.863 79.0491C57.7601 79.2343 57.6984 79.5223 57.6984 79.9338V80.2013C57.6161 80.4893 57.5338 80.7568 57.4309 81.0037C57.3486 81.2506 57.2457 81.4564 57.1428 81.6621C57.1223 81.7444 57.1017 81.7856 57.0606 81.8267C57.0194 81.8679 56.9577 81.909 56.896 81.909C56.8548 81.909 56.8548 81.909 56.8342 81.909C56.8136 81.8884 56.8137 81.8679 56.7931 81.8267C56.7931 81.765 56.7931 81.6415 56.8136 81.4358C56.8342 81.2506 56.8754 80.9626 56.9165 80.6334C56.9782 80.263 57.04 79.9132 57.0811 79.5429C57.1223 79.1725 57.184 78.8228 57.2457 78.4524C57.3074 77.9998 57.3692 77.5883 57.4721 77.2385C57.5544 76.8681 57.6367 76.5801 57.719 76.3332C58.1305 75.2016 58.4185 74.2757 58.5831 73.4939C58.7477 72.712 58.8094 72.1359 58.7477 71.7244C58.686 71.3541 58.6037 71.0866 58.4391 70.9014C58.2951 70.7162 58.0893 70.6545 57.8424 70.6957C57.8012 70.6957 57.7395 70.7162 57.719 70.7574C57.6778 70.7985 57.6367 70.8397 57.6161 70.9014C57.5132 71.1483 57.4309 71.3952 57.3486 71.6627C57.2663 71.9302 57.2046 72.2182 57.1634 72.5063C57.1634 72.6091 57.1223 72.6914 57.1017 72.7737C57.0606 72.856 57.04 72.9178 57.0194 72.9589C56.9782 73.0618 56.9165 73.2881 56.8342 73.5967C56.7519 73.9054 56.6491 74.2963 56.5462 74.7901C56.4227 75.3045 56.3404 75.7365 56.2787 76.0451C56.1964 76.3743 56.1553 76.6007 56.1347 76.7447C56.0318 76.9093 55.9289 77.1356 55.8055 77.4237C55.7026 77.7117 55.5792 78.0615 55.4557 78.473C55.3528 78.761 55.2705 79.0285 55.1676 79.2754C55.0442 79.5017 54.9207 79.7075 54.7561 79.8721C54.6738 79.975 54.6121 80.0778 54.5504 80.1396C54.4887 80.2219 54.4475 80.2836 54.427 80.3659C54.4064 80.4482 54.3858 80.5099 54.3652 80.5511C54.3447 80.5716 54.1183 80.8391 54.036 80.9214C53.9537 81.0243 53.8714 81.1272 53.7891 81.2095C53.6657 81.3329 53.5628 81.4152 53.4599 81.4769C53.3571 81.5387 53.2336 81.5592 53.1307 81.5798C53.0484 81.5798 52.9661 81.5798 52.8838 81.5592C52.8221 81.5387 52.7604 81.5181 52.7398 81.4358C52.6987 81.3946 52.637 81.2712 52.5341 81.0243C52.4312 80.7774 52.3694 80.6128 52.2871 80.4893C52.246 80.2836 52.1843 80.0984 52.1226 79.9132C52.0609 79.7075 51.9991 79.5429 51.9168 79.3371C51.8345 79.1314 51.7111 78.9874 51.5465 78.9051C51.3819 78.8228 51.1967 78.7816 50.9704 78.8228C50.8881 78.8433 50.8057 78.8639 50.744 78.9256C50.6617 78.9874 50.6 79.0491 50.5589 79.1725C50.4354 79.44 50.1679 79.7692 49.7976 80.1807C49.4273 80.6128 49.1804 80.942 49.0363 81.2095L49.0157 81.3123C49.0157 81.3123 48.8923 81.4975 48.81 81.5387C48.7483 81.5798 48.6865 81.6004 48.6042 81.621C48.5014 81.6415 48.3985 81.6004 48.2956 81.5181C48.1927 81.4358 48.1105 81.3123 48.0076 81.1272C47.8636 80.798 47.6989 80.4688 47.5138 80.119C47.3697 79.9338 47.2257 79.8104 47.0817 79.7281C46.9171 79.6458 46.7319 79.6252 46.5467 79.6663C46.4439 79.6663 46.341 79.7075 46.2175 79.7898C46.0941 79.8721 45.9501 79.9544 45.7855 80.0573C45.662 80.1807 45.5386 80.2836 45.4357 80.3865C45.3328 80.4893 45.2505 80.5922 45.1682 80.6745C45.1271 80.7568 45.0859 80.8185 45.0654 80.8597C45.0448 80.9214 45.0036 80.9831 44.983 81.0037C44.8802 81.1066 44.7979 81.2095 44.7156 81.3329C44.6333 81.4358 44.5921 81.5592 44.551 81.6621C44.4275 81.8061 44.3246 81.9296 44.2218 82.053C44.1395 82.1765 44.0778 82.2794 44.0366 82.3822C44.016 82.4234 43.9749 82.4645 43.9543 82.5057C43.9337 82.5468 43.9132 82.5674 43.872 82.588C43.8309 82.5468 43.7897 82.5057 43.7897 82.4645C43.7897 82.4234 43.7897 82.3822 43.7897 82.3205C43.7897 82.2588 43.8103 82.1765 43.8309 82.0942C43.872 81.9913 43.8926 81.8679 43.9337 81.7238C44.0778 81.0243 44.1601 80.4893 44.2012 80.0573C44.2629 79.6458 44.2629 79.3577 44.2424 79.2137C44.2012 78.9462 44.1189 78.761 43.9955 78.617C43.872 78.4936 43.6868 78.4524 43.4811 78.4936C43.2548 78.5141 43.049 78.5964 42.8638 78.7199C42.6787 78.8433 42.514 79.0285 42.37 79.2548C42.2054 79.5223 42.0408 79.7281 41.9174 79.9338C41.7939 80.0984 41.6911 80.263 41.6088 80.3865C41.4236 80.6745 41.259 80.9214 41.115 81.1272C40.971 81.3329 40.868 81.5181 40.7652 81.6415C40.6623 81.7856 40.5594 81.909 40.4771 82.0119C40.3948 82.1148 40.3125 82.1971 40.2714 82.2588C40.2302 82.3411 40.1891 82.4234 40.1479 82.4645C40.1068 82.5263 40.0862 82.5674 40.0656 82.6291V82.6497C39.9833 82.7114 39.9216 82.7937 39.8599 82.876C39.7982 82.9583 39.7159 83.0406 39.6541 83.1024C39.5513 83.2052 39.469 83.2875 39.4072 83.3287C39.3455 83.3698 39.2632 83.411 39.2015 83.411C39.0163 83.4521 38.7694 83.3081 38.4402 83.0201C38.111 82.732 37.9258 82.5057 37.9053 82.3411C37.8641 82.1148 38.0698 81.6004 38.5019 80.798C38.934 79.9955 39.1192 79.3577 39.0575 78.8845C39.0369 78.6993 38.9751 78.5553 38.9134 78.473C38.8311 78.3907 38.7283 78.3495 38.5842 78.3701C38.5225 78.3907 38.4402 78.473 38.3374 78.6582C38.2345 78.8433 38.111 79.1108 37.967 79.4606C37.7201 80.1396 37.5143 80.6334 37.3703 80.9831C37.2057 81.3329 37.1028 81.5181 37.0617 81.5387C36.6913 81.6827 36.4445 81.8473 36.321 82.0325C36.1976 82.2176 36.1564 82.5057 36.1564 82.9172V83.1847C36.0741 83.4727 35.9918 83.7402 35.8889 83.9871C35.8066 84.234 35.7038 84.4397 35.6009 84.6455C35.5803 84.7072 35.5597 84.7895 35.5185 84.8307C35.4774 84.8718 35.4363 84.8924 35.3745 84.913C35.354 84.913 35.3128 84.913 35.3128 84.8924C35.2922 84.8718 35.2717 84.8512 35.2717 84.8101C35.2717 84.7484 35.2717 84.6249 35.2923 84.4192C35.3128 84.234 35.3539 83.9665 35.4157 83.6373C35.4774 83.2875 35.5186 82.9172 35.5803 82.5468C35.6214 82.1971 35.6832 81.8267 35.7449 81.4769C35.8272 81.0243 35.8889 80.6128 35.9712 80.2424C36.0535 79.8927 36.1358 79.584 36.2181 79.3371C36.6296 78.2261 36.8971 77.2796 37.0823 76.5184C37.2263 75.7365 37.288 75.1399 37.2263 74.7284C37.1851 74.358 37.0823 74.0905 36.9383 73.9259C36.7942 73.7408 36.5884 73.679 36.3415 73.7202C36.3004 73.7202 36.2593 73.7408 36.1975 73.8025C36.1564 73.8436 36.1358 73.8848 36.0947 73.9465C36.0124 74.1728 35.93 74.4403 35.8272 74.6872C35.7449 74.9547 35.6832 75.2427 35.642 75.5514C35.642 75.6542 35.6009 75.7365 35.5803 75.8188C35.5391 75.8806 35.5186 75.9423 35.498 75.9834C35.4569 76.1069 35.3951 76.3126 35.3128 76.6418C35.2305 76.9504 35.1276 77.3619 35.0248 77.8557C34.9013 78.3701 34.7985 78.7816 34.7367 79.1108C34.675 79.44 34.6338 79.6869 34.6133 79.8104C34.5104 79.975 34.4075 80.2013 34.284 80.4893C34.1812 80.7774 34.0577 81.1272 33.9343 81.5387C33.8314 81.8267 33.7285 82.0942 33.6257 82.3411C33.5228 82.5674 33.3788 82.7732 33.2348 82.9378C33.1525 83.0406 33.0907 83.1229 33.029 83.2052C32.9673 83.2875 32.9261 83.3698 32.9055 83.4316C32.885 83.5139 32.8644 83.5756 32.8438 83.6167C32.8232 83.6579 32.8027 83.6785 32.7821 83.699C32.741 83.7608 32.6792 83.8225 32.5969 83.8636C32.5352 83.9048 32.494 83.9459 32.4529 83.9665C32.3089 84.09 32.1443 84.1723 31.9591 84.2751C31.7739 84.3574 31.5476 84.4397 31.3213 84.4809C31.1773 84.4603 31.0332 84.4603 30.9304 84.4397C30.8069 84.4192 30.7246 84.378 30.6629 84.3574C30.5806 84.3163 30.4983 84.2546 30.4365 84.1723C30.3748 84.0694 30.3337 83.9665 30.3131 83.8431C30.2925 83.7608 30.3131 83.699 30.3337 83.6167C30.3542 83.555 30.3954 83.4933 30.416 83.4316C30.8686 82.8555 31.2184 82.3617 31.4653 81.9296C31.7122 81.4975 31.8562 81.1272 31.8974 80.8185L31.9385 80.5099C31.9591 80.3453 31.9797 80.2424 31.9797 80.1807C31.9797 80.0984 32.0002 80.0778 32.0208 80.1396C31.9797 79.9955 31.9385 79.8515 31.8974 79.7486C31.8562 79.6046 31.7739 79.4812 31.7328 79.3989C31.671 79.296 31.6093 79.2343 31.5682 79.1931C31.5064 79.1314 31.4036 79.0902 31.3007 79.0697C31.1978 79.0491 31.0744 79.0491 30.9304 79.0697C30.8275 79.0902 30.7246 79.1108 30.6423 79.152C30.5394 79.1931 30.4571 79.2343 30.3954 79.2548C30.3131 79.3371 30.2514 79.3989 30.1691 79.44C30.1073 79.5017 30.0251 79.5635 29.9839 79.6252C29.8605 79.8104 29.737 80.0161 29.6135 80.2013C29.4901 80.3865 29.3667 80.5716 29.2638 80.7362C29.1403 81.0037 29.0581 81.2506 28.9757 81.4769C28.914 81.6827 28.8523 81.8679 28.8317 82.0119C28.7905 82.1559 28.77 82.2999 28.7494 82.4028C28.7288 82.5263 28.7083 82.6291 28.7083 82.732C28.7083 82.8555 28.7083 82.9789 28.7083 83.1024V83.4933C28.5437 83.6579 28.4202 83.8225 28.3173 83.9665C28.2144 84.1105 28.1321 84.2751 28.0704 84.3986C27.7001 84.8101 27.4326 85.0981 27.2269 85.3245C27.0211 85.5302 26.8977 85.6537 26.8565 85.6537C26.7948 85.6742 26.7537 85.6537 26.7125 85.5919C26.6714 85.5508 26.6507 85.4685 26.6302 85.3862C26.6096 85.2627 26.6096 85.0364 26.6096 84.7278C26.6096 84.3986 26.6302 83.9665 26.6508 83.4316C26.7331 82.7526 26.7948 82.1559 26.8565 81.6827C26.9182 81.1889 26.9799 80.7774 27.0417 80.4482C27.0622 80.3247 27.0623 80.2219 27.0623 80.119C27.0828 80.0367 27.0828 79.9338 27.0828 79.8721L27.7001 79.6663C27.7824 79.6458 27.803 79.5223 27.8235 79.3371C27.8235 79.1314 27.803 78.8433 27.7413 78.473C27.7207 78.3701 27.7206 78.3084 27.7001 78.2467C27.6795 78.1849 27.6383 78.1644 27.5972 78.1438C27.556 78.1026 27.5149 78.0821 27.4943 78.0615C27.4737 78.0409 27.4532 78.0203 27.4326 77.9998C27.4326 77.8763 27.4532 77.6911 27.5149 77.4442C27.5766 77.2179 27.5766 77.0122 27.5766 76.8681C27.5355 76.683 27.4737 76.5595 27.3914 76.4772C27.3091 76.3949 27.1857 76.3538 27.0417 76.3949C26.7742 76.4361 26.5479 76.7653 26.3833 77.3825C26.2393 77.9998 26.0335 78.329 25.8278 78.3701L25.5191 78.329C25.4163 78.3495 25.334 78.3907 25.2723 78.4113C25.19 78.4318 25.1076 78.4524 25.0459 78.4936C24.9842 78.473 24.8813 78.473 24.7579 78.473C24.6344 78.473 24.4904 78.4936 24.3258 78.5141C24.2435 78.5347 24.1612 78.5759 24.0583 78.617C23.9349 78.617 23.8114 78.5964 23.6468 78.617C23.5028 78.617 23.3382 78.6376 23.153 78.6582C22.9884 78.6787 22.865 78.8022 22.8033 79.0285C22.7415 79.2343 22.7415 79.5429 22.8033 79.9544C22.8033 79.9955 22.8444 80.0573 22.8855 80.0778C22.9267 80.119 22.9884 80.1396 23.0707 80.1601C23.1118 80.1807 23.1736 80.1807 23.2353 80.2013C23.297 80.2013 23.3588 80.2424 23.4205 80.263C23.4617 80.263 23.5645 80.2424 23.6674 80.2424C23.7908 80.2219 23.8731 80.2219 23.9143 80.2219L25.0871 80.0778C25.1282 80.0778 25.19 80.0573 25.2723 80.0161C25.3546 79.975 25.4163 79.975 25.4574 79.9544C25.4986 79.9338 25.5397 79.9544 25.5603 79.975C25.5809 79.9955 25.6014 80.0161 25.6014 80.0573C25.5397 80.2219 25.4986 80.3659 25.4574 80.4893C25.4163 80.6128 25.3751 80.6951 25.3339 80.7774C25.0253 81.5798 24.6961 82.2794 24.3669 82.8966C24.0172 83.5139 23.6674 84.0488 23.2764 84.5426C23.2147 84.6455 23.153 84.7484 23.1119 84.8307C23.0707 84.913 23.0296 84.9747 22.9884 85.0364L22.9678 85.1187C22.8855 85.201 22.7827 85.3039 22.7004 85.4068C22.6181 85.5096 22.5152 85.5919 22.4534 85.6948C22.3506 85.7977 22.2272 85.9006 22.1243 85.9417C22.0214 86.0034 21.8979 86.024 21.7951 86.0446C21.7128 86.0652 21.6305 86.0446 21.5482 86.0446C21.4864 86.024 21.4247 85.9829 21.4042 85.9211C21.363 85.9006 21.3013 85.7565 21.1984 85.5096C21.0955 85.2627 21.0338 85.0981 20.9721 84.9747C20.9309 84.7895 20.8486 84.5838 20.7869 84.3986C20.7252 84.2134 20.6429 84.0282 20.5812 83.8431C20.4989 83.6373 20.3754 83.4727 20.2108 83.3904C20.0462 83.3081 19.861 83.2875 19.6347 83.3081C19.5524 83.3081 19.4907 83.3493 19.4084 83.3904C19.3261 83.4521 19.2643 83.5344 19.2232 83.6373C19.0997 83.8842 18.8528 84.234 18.4619 84.6455C18.0916 85.0776 17.8447 85.4068 17.7007 85.6537V85.7565L17.6595 85.8183C17.5361 85.9623 17.4332 86.0857 17.3303 86.168C17.2274 86.2709 17.1451 86.3532 17.0834 86.4149C16.8159 86.5384 16.6308 86.6412 16.4662 86.703C16.3016 86.7853 16.2193 86.8058 16.1987 86.8058C15.7255 86.8676 15.3551 86.7647 15.0671 86.4972C14.779 86.2297 14.5938 85.7771 14.5115 85.1804C14.6761 84.8512 14.8202 84.5015 14.9642 84.1311C15.0671 83.9048 15.1699 83.699 15.2728 83.5344C15.3757 83.3493 15.4374 83.2258 15.4991 83.1024C15.5403 82.9583 15.5814 82.8555 15.602 82.7526C15.6226 82.6497 15.6637 82.5674 15.6843 82.5057C15.746 82.3617 15.8077 82.2382 15.8695 82.1353C15.9106 82.0325 15.9724 81.9502 15.9929 81.8679C16.0547 81.7238 16.0958 81.5798 16.1164 81.4769C16.137 81.3741 16.1575 81.2712 16.1781 81.1889C16.2192 81.0654 16.281 80.9626 16.3221 80.8597C16.3633 80.7568 16.4044 80.6745 16.4456 80.6128C16.5073 80.3659 16.5484 80.119 16.5896 79.8927C16.6102 79.6869 16.6513 79.5017 16.6719 79.3371C16.7336 79.152 16.7748 79.0079 16.7953 78.8639C16.8159 78.7199 16.8571 78.617 16.8571 78.5347L16.8365 78.4113C16.8571 78.3495 16.8571 78.2878 16.8571 78.2467C16.8365 78.1026 16.8571 77.9175 16.8982 77.7117C16.9394 77.506 16.9394 77.3619 16.9394 77.2385C16.9394 77.1356 16.9188 76.971 16.9394 76.7653C16.9394 76.5595 16.9394 76.3949 16.9188 76.292C16.8571 75.9011 16.7748 75.6542 16.6102 75.5308C16.4456 75.4073 16.1987 75.3662 15.8489 75.4279C15.6637 75.4485 15.4786 75.6131 15.2934 75.8805C15.1082 76.148 14.8819 76.5595 14.6762 77.0945C14.5116 77.4854 14.3675 77.8763 14.2441 78.2467C14.1206 78.617 14.0383 78.9874 13.956 79.3166C13.8943 79.5223 13.8531 79.7075 13.7914 79.8515C13.7503 80.0161 13.7091 80.1601 13.6474 80.263C13.5445 80.8597 13.4416 81.4152 13.3799 81.9296C13.2976 82.444 13.2359 82.9172 13.2359 83.3493L13.3182 83.5139C13.277 83.5962 13.2564 83.8019 13.2564 84.1311C13.2359 84.4603 13.2564 84.7072 13.2564 84.8512C13.2976 84.8924 13.2976 84.9541 13.3182 85.0364C13.3182 85.0981 13.3388 85.1393 13.3388 85.1804C13.3388 85.201 13.3182 85.2422 13.2976 85.2627L12.7627 85.9006C12.6804 86.0034 12.6186 86.1269 12.5775 86.2298C12.5363 86.3326 12.4952 86.4149 12.454 86.4767C12.3923 86.5384 12.3306 86.6001 12.2894 86.6412C12.2483 86.6824 12.1866 86.703 12.1454 86.703C12.1043 86.703 12.0631 86.703 12.0219 86.6618C11.9808 86.6413 11.9397 86.5795 11.9191 86.5178C11.9602 86.4355 12.022 86.3532 12.0837 86.2092C12.1454 86.0652 12.1866 85.9211 12.2072 85.7154C12.2483 85.5302 12.2688 85.3656 12.2688 85.2422C12.2894 85.0776 12.2688 84.9747 12.2688 84.8512C12.1865 84.2957 12.0219 83.9048 11.7545 83.6579C11.487 83.411 11.1372 83.3287 10.6846 83.3904C10.6434 83.3904 10.5406 83.4316 10.3965 83.4933C10.2525 83.5756 10.0262 83.6785 9.7793 83.8225L9.69697 83.7402C9.75869 83.5962 9.79988 83.4316 9.84103 83.2875C9.82046 83.2258 9.77927 83.1847 9.69697 83.1641C9.63524 83.1435 9.53237 83.1435 9.38834 83.1641C9.2649 83.1847 9.16205 83.2258 9.05918 83.2875C8.9563 83.3493 8.87397 83.4316 8.7711 83.5344C8.70937 83.6373 8.62707 83.7402 8.56535 83.8431C8.50362 83.9459 8.42135 84.0488 8.33905 84.1517C8.27733 84.234 8.19503 84.3163 8.1333 84.3986C8.051 84.4809 7.96868 84.5632 7.90696 84.6661C7.80408 84.7689 7.74239 84.8718 7.68066 84.9747C7.61894 85.0776 7.57777 85.1599 7.55719 85.2422C7.53662 85.2627 7.51606 85.2833 7.47491 85.3245C7.51606 85.2216 7.53662 85.1393 7.55719 85.0364C7.68064 84.5426 7.70121 83.9459 7.59833 83.267C7.53661 82.8966 7.45432 82.5468 7.35144 82.2588C7.24857 81.9502 7.12514 81.6621 6.96054 81.4152C6.83709 81.1889 6.65192 80.9626 6.44617 80.7362C6.21984 80.4893 5.95234 80.2424 5.64371 79.9544C5.60256 79.9132 5.54085 79.8721 5.4997 79.8104C5.45855 79.7692 5.4174 79.7486 5.39682 79.7281C5.19107 79.584 5.0059 79.4606 4.88245 79.3577C4.759 79.2548 4.67671 79.1931 4.63556 79.1314C4.32693 78.9874 4.1212 78.8639 3.97717 78.7405C3.83315 78.617 3.50392 78.473 2.96897 78.3084C2.78379 78.2467 2.59863 78.2055 2.41345 78.1438C2.22828 78.0821 2.06366 78.0409 1.87848 77.9792L1.59045 78.0203C1.52873 77.9792 1.40526 77.938 1.26124 77.8969C1.07606 77.9175 0.808626 78.1644 0.479427 78.617C0.129653 79.0697 -0.034957 79.3783 0.00619294 79.5635C0.00619294 79.6046 0.0473127 79.6869 0.129613 79.7898C0.211912 79.8927 0.355967 80.0367 0.520567 80.2219C0.685167 80.4276 0.829191 80.5922 0.932066 80.7362C1.03494 80.8597 1.11721 80.9831 1.15836 81.0654L1.03494 84.09L1.13782 84.4192C1.11724 84.6249 1.11725 84.8307 1.09668 84.9953C1.09668 85.1599 1.07608 85.3039 1.07608 85.3862C1.09666 85.736 1.09665 86.0034 1.11722 86.1886C1.11722 86.3738 1.11722 86.4972 1.11722 86.5384C1.09665 86.9087 1.09666 87.2791 1.07608 87.6494C1.07608 87.7112 1.11721 87.814 1.15836 87.9375C1.19951 88.0609 1.22012 88.1638 1.24069 88.2255C1.28184 88.4724 1.13781 88.6782 0.870331 88.8633C0.582282 89.0485 0.458832 89.172 0.458832 89.2543C0.458832 89.316 0.499982 89.3777 0.561707 89.4395C0.623432 89.4806 0.705742 89.5217 0.829191 89.5629C0.911491 89.604 0.993781 89.6452 1.07608 89.6658C1.15838 89.7069 1.24067 89.7275 1.32297 89.7481L1.44644 90.283C1.40529 90.5916 1.38469 90.8591 1.36411 91.0649C1.34354 91.2706 1.34354 91.4558 1.36411 91.5792C1.42584 92.0113 1.50815 92.896 1.63159 93.1018C1.75504 93.3075 1.91967 93.3898 2.12542 93.3693C2.2283 93.3487 2.33117 93.287 2.43405 93.1841C2.53692 93.0812 2.63978 92.9372 2.72208 92.752C2.80438 92.5874 2.8661 92.464 2.92783 92.3405C2.98955 92.2171 3.03069 91.4969 3.07184 91.3735C2.90724 91.2295 2.80436 91.0854 2.70148 90.962C2.61918 90.8385 2.55747 90.7151 2.55747 90.6122C2.53689 90.3242 2.51631 90.0155 2.49573 89.7069C2.45458 89.2337 2.45458 88.9868 2.49573 88.9456C2.53688 88.9251 2.63978 88.8839 2.82495 88.8633C2.88668 88.8633 2.96897 88.8222 3.07184 88.7399C3.17472 88.6782 3.31877 88.5959 3.4628 88.493C4.01832 88.1638 4.53266 87.8757 5.02646 87.6083C5.27336 87.4643 5.47913 87.3408 5.66431 87.2379C5.35568 87.7112 6.11693 87.9992 6.81647 87.4231C6.93992 87.3202 6.98107 87.2585 7.02222 87.2585C7.08395 87.2585 7.12512 87.2585 7.14569 87.2791C7.16627 87.2997 7.20743 87.3408 7.20743 87.382C7.20743 87.4231 7.18686 87.5877 7.16629 87.8346C7.12514 88.0815 7.12512 88.2872 7.14569 88.4518C7.18684 88.8222 7.37201 89.1102 7.70121 89.3777C8.03041 89.6452 8.35964 89.7275 8.70941 89.6863C8.77114 89.6658 8.83286 89.6452 8.91516 89.6246C9.01804 89.5835 9.05917 89.5629 9.10032 89.5629C9.20319 89.5423 9.30609 89.5217 9.42953 89.46C9.55299 89.3983 9.67643 89.316 9.84103 89.2131C10.0879 89.0691 10.3142 88.9045 10.52 88.6987C10.7051 88.493 10.8698 88.2873 10.9932 88.0609C11.0549 88.1844 11.1578 88.2667 11.2607 88.3284C11.3636 88.3695 11.487 88.4107 11.631 88.3696C11.7545 88.349 11.878 88.3078 12.0014 88.2461C12.1043 88.1638 12.2483 88.0609 12.3717 87.9375C12.4746 87.8346 12.5775 87.7317 12.6598 87.6288C12.7627 87.526 12.8449 87.4025 12.9478 87.2997C13.0918 87.1351 13.1947 87.0116 13.277 86.8676C13.3593 86.7441 13.4416 86.6412 13.5239 86.5384C13.5857 86.5795 13.6268 86.6207 13.6679 86.6618C13.7091 86.703 13.7297 86.7441 13.7503 86.8058C13.9149 87.3408 14.1206 87.7523 14.3881 87.9786C14.6555 88.2255 14.9642 88.3284 15.3139 88.2872C15.4168 88.2667 15.5814 88.2667 15.7872 88.2667C15.9929 88.2461 16.1369 88.2461 16.2398 88.2255C16.425 88.205 16.6102 88.1227 16.8159 88.0198C17.0011 87.9169 17.1863 87.7523 17.3509 87.5671C17.4949 87.4025 17.6389 87.2379 17.7829 87.0733C17.927 86.8882 18.071 86.7441 18.215 86.559H18.1944C18.4002 86.2709 18.5648 86.0446 18.7294 85.88C18.894 85.7154 18.9969 85.6331 19.0998 85.6331C19.1409 85.6331 19.182 85.6537 19.2643 85.7154C19.3261 85.7771 19.4084 85.88 19.4907 86.0034C19.573 86.0857 19.6347 86.1475 19.6964 86.2298C19.7581 86.2915 19.7993 86.3532 19.8404 86.3943C20.1285 86.9499 20.3548 87.2997 20.54 87.4025C20.7252 87.5054 21.0955 87.526 21.6716 87.4437C21.7745 87.4231 21.8979 87.3819 22.0625 87.2585C22.2271 87.135 22.4329 86.9705 22.6592 86.7647C22.8649 86.559 23.0501 86.3944 23.1942 86.2503C23.3382 86.1063 23.4616 85.9623 23.5439 85.8594C23.5851 85.7565 23.6468 85.6742 23.6674 85.6125C23.7085 85.5508 23.7291 85.5096 23.7497 85.4685C24.0377 85.0981 24.3052 84.7484 24.5933 84.4192C24.7784 84.2134 24.9225 84.0077 25.0459 83.8225C25.1694 83.6373 25.2722 83.4727 25.3339 83.3081L25.4163 83.2464C25.478 83.267 25.4986 83.2875 25.5191 83.3287C25.4574 83.5139 25.4163 83.6785 25.3751 83.8225C25.3751 84.0694 25.3751 84.3163 25.3545 84.5632C25.3545 84.7072 25.3545 84.8307 25.3545 84.9541C25.3545 85.057 25.3545 85.1393 25.3545 85.201C25.334 85.2422 25.334 85.2833 25.3134 85.345C25.2722 85.5096 25.2723 85.736 25.2723 86.0034C25.2928 86.2709 25.3134 86.5795 25.3751 86.9293C25.4163 87.2585 25.5192 87.4848 25.6838 87.6288C25.8278 87.7729 26.0541 87.8346 26.3215 87.7935C26.445 87.7729 26.5685 87.7317 26.7125 87.6288C26.836 87.5465 26.98 87.4025 27.1034 87.2173C27.1857 87.0939 27.2886 86.9499 27.3709 86.8058C27.4532 86.6618 27.556 86.5178 27.6589 86.3943C27.7618 86.2709 27.8441 86.1475 27.9058 86.0652C27.9881 85.9623 28.0498 85.88 28.1116 85.7977C28.2556 85.6742 28.379 85.5508 28.4819 85.4479C28.5848 85.345 28.6465 85.2627 28.7083 85.1599V85.1393C28.77 85.057 28.8317 84.9747 28.8729 84.913C28.9346 84.8512 28.9757 84.8307 29.0374 84.8307C29.0992 84.8101 29.1609 84.8512 29.2226 84.913C29.2844 84.9747 29.3461 85.057 29.4284 85.1804C29.5313 85.345 29.593 85.4685 29.6753 85.5919C29.7576 85.7154 29.8193 85.7771 29.9016 85.8388C30.0251 85.9417 30.1897 86.024 30.3954 86.0652C30.5806 86.1063 30.7863 86.1063 31.0127 86.0857C31.1773 86.0651 31.3418 86.024 31.4653 85.9828C31.5887 85.9417 31.6916 85.88 31.7739 85.8183C32.0208 85.7771 32.2677 85.6537 32.5352 85.4479C32.8027 85.2216 33.0907 84.9335 33.3994 84.522C33.4817 84.378 33.5228 84.2751 33.5434 84.234C33.564 84.1723 33.5845 84.1517 33.6051 84.1311C33.7491 83.9048 33.8726 83.7196 33.9754 83.5756C34.0783 83.4316 34.1606 83.2875 34.2429 83.1641L34.3252 83.2464C34.3458 83.3493 34.3458 83.4521 34.3252 83.5962C34.3252 83.7402 34.3046 83.8842 34.284 84.0694C34.2223 84.4603 34.1812 84.8101 34.1812 85.1599C34.1812 85.489 34.2018 85.8183 34.2429 86.1063C34.2841 86.3944 34.3664 86.6001 34.531 86.7441C34.6544 86.8676 34.8601 86.9087 35.107 86.8882C35.2716 86.8676 35.3951 86.7853 35.4774 86.6618C35.5803 86.5178 35.6626 86.3944 35.7243 86.2709C35.786 86.168 35.8683 86.0857 35.93 86.024C35.9918 85.9623 36.0329 85.9006 36.0535 85.8388C36.1564 85.6948 36.2387 85.5508 36.321 85.3862C36.4033 85.2422 36.5062 85.0981 36.5885 84.9541C36.7325 84.7278 36.8971 84.4809 37.1029 84.234C37.1234 84.234 37.3909 84.378 37.8847 84.7072C38.3785 85.0158 38.7282 85.1599 38.9134 85.1393C39.0986 85.1187 39.2632 85.057 39.4278 84.9541C39.5924 84.8512 39.757 84.6866 39.9216 84.4809C40.0656 84.3369 40.1891 84.1723 40.3125 84.0077C40.436 83.8431 40.58 83.6785 40.7035 83.5139L40.6829 83.4933C40.724 83.4316 40.7652 83.3698 40.7652 83.3287C40.7857 83.2875 40.8064 83.2464 40.8064 83.2052C40.9092 83.0818 40.9915 82.9995 41.0532 82.8966C41.115 82.8143 41.1767 82.732 41.2384 82.6909C41.2795 82.6497 41.3413 82.588 41.4236 82.4645C41.5265 82.3411 41.6293 82.1765 41.7939 81.9707C41.9174 81.7856 42.0202 81.6621 42.1025 81.5798C42.1848 81.4769 42.2672 81.4358 42.3289 81.4358C42.3906 81.4358 42.4523 81.4358 42.4729 81.4564C42.514 81.4769 42.5346 81.4975 42.5346 81.5592C42.5552 81.6004 42.5552 81.6415 42.5346 81.7033C42.5346 81.765 42.514 81.8473 42.514 81.9296C42.4935 82.0119 42.4729 82.0942 42.4729 82.1353C42.4523 82.1971 42.4524 82.2382 42.4524 82.2588C42.37 82.7937 42.3083 83.2875 42.226 83.6785C42.1643 84.0694 42.1026 84.4192 42.0409 84.6866C42.082 84.8512 42.1231 85.0364 42.1849 85.201C42.226 85.3656 42.37 85.4273 42.6169 85.4068C42.7404 85.3862 42.8638 85.3656 42.9461 85.3245C43.049 85.2833 43.1313 85.2216 43.193 85.1393C43.2547 85.057 43.337 84.9747 43.3988 84.8924C43.4605 84.7895 43.5428 84.7072 43.6045 84.6249C43.872 84.2546 44.0983 83.9459 44.2629 83.6785C44.4481 83.411 44.5715 83.2052 44.6333 83.0406C44.6538 82.9583 44.7361 82.876 44.839 82.7937C44.9625 82.7114 45.1271 82.5263 45.374 82.2588C45.4974 82.1148 45.6003 82.0119 45.7032 81.909C45.806 81.8267 45.9089 81.7444 46.0324 81.7033L46.1147 81.7238C46.2793 81.8884 46.4233 82.0119 46.5467 82.1353C46.6702 82.2588 46.7731 82.3411 46.876 82.4234C46.9994 82.6086 47.1023 82.7526 47.2051 82.8966C47.2874 82.9995 47.3698 83.0818 47.4315 83.1229C47.5344 83.2464 47.6578 83.3081 47.8018 83.3698C47.9459 83.411 48.0693 83.411 48.2339 83.3904C48.3573 83.3698 48.4808 83.3287 48.5836 83.267C48.7071 83.2052 48.8306 83.0818 48.954 82.9378C49.0569 82.8349 49.1392 82.732 49.2421 82.6291C49.345 82.5263 49.4272 82.4234 49.5301 82.3205C49.7359 82.0325 49.9005 81.7856 50.0651 81.6415C50.2091 81.4769 50.3325 81.3946 50.4354 81.3741C50.4765 81.3741 50.5177 81.3946 50.6 81.4564C50.6617 81.5181 50.744 81.621 50.8469 81.7444C50.9086 81.8267 50.9909 81.8884 51.0526 81.9707C51.1144 82.0325 51.1556 82.0736 51.1967 82.1353C51.4848 82.7114 51.7111 83.0406 51.8962 83.1435C52.0814 83.2464 52.4518 83.267 53.0279 83.1847C53.1102 83.1641 53.2542 83.1024 53.4188 82.9789C53.5834 82.8555 53.7891 82.7114 54.0155 82.4851C54.2212 82.2794 54.4064 82.1148 54.5504 81.9707C54.6944 81.8267 54.8179 81.6827 54.9002 81.5798C54.9825 81.4358 55.0236 81.3329 55.0442 81.2918C55.0648 81.2506 55.0854 81.2095 55.1059 81.1683C55.2294 80.942 55.3734 80.7774 55.4763 80.6128C55.5791 80.4688 55.682 80.3247 55.7437 80.2219L55.8055 80.3042C55.8261 80.3865 55.8261 80.5099 55.8055 80.6539C55.8055 80.798 55.7849 80.942 55.7643 81.1272C55.7026 81.4975 55.6615 81.8679 55.6615 82.2176C55.6615 82.5468 55.6615 82.876 55.7232 83.1847C55.7643 83.4727 55.8466 83.6785 55.9906 83.8019C56.1347 83.9254 56.3199 83.9665 56.5873 83.9254C56.7519 83.9048 56.8754 83.8431 56.9577 83.699C57.04 83.5756 57.1429 83.4316 57.2046 83.3081C57.2663 83.2052 57.3486 83.1229 57.4103 83.0612C57.4721 82.9995 57.5132 82.9378 57.5338 82.876C57.6366 82.732 57.7189 82.588 57.8012 82.444C57.8835 82.2999 57.9658 82.1559 58.0687 82.0119C58.2127 81.765 58.3773 81.5387 58.5831 81.2918C58.6242 81.2712 58.8712 81.4358 59.365 81.765C59.8588 82.0942 60.188 82.2382 60.3937 82.2176C60.5789 82.1765 60.7435 82.1148 60.9081 82.0119C61.0727 81.909 61.2373 81.765 61.4019 81.5592C61.5459 81.3946 61.6694 81.23 61.7928 81.0654C61.9163 80.9008 62.0603 80.7362 62.1837 80.5716C62.1426 80.4482 63.1713 78.9668 62.8216 78.8022ZM5.37623 86.0034C5.3145 86.0857 5.19105 86.1886 5.0676 86.3326C4.96473 86.4355 4.88247 86.5178 4.80017 86.5795C4.71787 86.6618 4.63555 86.7236 4.57382 86.7647C4.40922 86.8676 4.26521 86.9704 4.12119 87.0527C3.97716 87.135 3.83315 87.2585 3.66855 87.3614C3.44222 87.526 3.23646 87.6494 3.09244 87.7317C2.94841 87.814 2.82494 87.8552 2.76322 87.8552C2.72207 87.8552 2.68095 87.8552 2.6398 87.814C2.59865 87.7935 2.57806 87.7317 2.57806 87.67C2.53691 87.4025 2.53689 87.0322 2.55747 86.5795C2.57804 86.1269 2.61918 85.5714 2.70148 84.913L2.57806 84.5426C2.63979 84.3574 2.7221 83.8225 2.84555 82.9378C2.969 82.053 3.01014 81.5592 2.98956 81.4358C2.94841 81.0654 2.49573 80.5716 1.67273 79.9132C1.67273 79.8721 1.67275 79.8309 1.69333 79.8309C1.7139 79.8104 1.73446 79.7898 1.77561 79.7898C2.00193 79.8515 2.18712 79.9338 2.35172 79.975C2.53689 80.0367 2.68091 80.0573 2.80436 80.0984C2.88666 80.1601 2.9484 80.2219 3.0307 80.263C3.09243 80.3247 3.17471 80.3659 3.21586 80.3865C3.70966 80.6951 4.10059 80.9831 4.40921 81.23C4.69726 81.4769 4.92361 81.7033 5.04706 81.8679C5.08821 81.9502 5.14994 82.0325 5.21167 82.0942C5.25282 82.1353 5.31453 82.1971 5.35568 82.2176C5.39683 82.2588 5.43795 82.2999 5.4791 82.3411C5.52025 82.3617 5.54084 82.4028 5.54084 82.444L5.60257 82.6703C5.7466 82.8966 5.84949 83.1435 5.93179 83.3698C6.01409 83.5962 6.0758 83.8225 6.11695 84.0488C6.1581 84.4397 6.15812 84.7689 6.03467 85.0776C5.93179 85.3656 5.76719 85.6331 5.52029 85.8594C5.49972 85.88 5.43795 85.9211 5.37623 86.0034ZM10.9521 86.2709C10.9521 86.3944 10.9315 86.5178 10.9109 86.6001C10.8903 86.6824 10.8698 86.7441 10.808 86.7853C10.7463 86.9087 10.664 87.0322 10.5817 87.1556C10.4171 87.5054 10.2113 87.7729 10.0056 87.9581C9.77927 88.1432 9.53238 88.2667 9.24433 88.3078C9.05916 88.3284 8.93571 88.3078 8.83283 88.2255C8.72996 88.1432 8.66825 88.0198 8.64768 87.8552C8.6271 87.7523 8.6271 87.6494 8.64768 87.5054C8.66825 87.3614 8.68881 87.1968 8.72996 86.991C8.77111 86.7647 8.81225 86.5795 8.87397 86.4561C8.9357 86.3326 8.97686 86.2709 9.03858 86.2503C9.14146 86.2092 9.22375 86.1886 9.28547 86.1269C9.34719 86.0857 9.42953 86.0034 9.47067 85.9211C9.55297 85.736 9.63524 85.5714 9.69697 85.4068C9.73812 85.3039 9.79988 85.2216 9.84103 85.1599C9.90276 85.0981 9.9233 85.057 9.96445 85.0364C10.1702 85.0364 10.3142 85.0364 10.4377 85.0364C10.5406 85.057 10.6229 85.057 10.6434 85.0776C10.7052 85.0981 10.7463 85.1599 10.808 85.2627C10.8903 85.3656 10.952 85.5096 11.0343 85.6742L10.9521 86.2709ZM14.4498 83.1641C14.4292 83.0818 14.4498 82.9172 14.4704 82.6909C14.5116 82.4645 14.5527 82.1765 14.635 81.8061C14.7173 81.5592 14.779 81.3329 14.8613 81.1272C14.9025 80.9626 14.9642 80.8185 14.9848 80.6951C15.0054 80.5922 15.0259 80.5099 15.0053 80.4688C14.9847 80.2013 15.0259 79.8927 15.1493 79.5635C15.2934 79.2343 15.4991 78.9051 15.8078 78.5141L15.8695 78.5347C15.8695 78.6582 15.8489 78.7816 15.8489 78.9051C15.8283 79.0285 15.8283 79.152 15.8489 79.2754C15.8489 79.4194 15.7872 79.8104 15.6432 80.407C15.4991 81.0037 15.3962 81.3741 15.3139 81.5181C15.2316 81.7238 15.1494 81.9296 15.0876 82.0942C15.0054 82.2588 14.9436 82.3822 14.923 82.5057C14.8407 82.732 14.779 82.8966 14.7173 83.0201C14.6556 83.1435 14.5938 83.2052 14.5321 83.2258L14.4498 83.1641ZM30.2514 82.2588C30.2102 82.3411 30.1691 82.3822 30.1074 82.3822C30.0456 82.4028 30.0251 82.3822 30.0045 82.3822C29.9839 82.3617 29.9633 82.3411 29.9633 82.2999C29.9427 82.1353 30.0251 81.8473 30.2102 81.4769C30.3954 81.086 30.5394 80.8803 30.6834 80.8597C30.7246 80.8597 30.7657 80.8597 30.7863 80.9008C30.8069 80.942 30.8275 80.9831 30.8275 81.0243C30.8481 81.1066 30.8275 81.2095 30.8069 81.2918C30.7658 81.3946 30.7452 81.4769 30.6629 81.5798C30.6217 81.6621 30.56 81.7238 30.5189 81.8061C30.4571 81.8884 30.416 81.9707 30.3543 82.0325C30.3337 82.1148 30.2925 82.1765 30.2514 82.2588Z" fill="#00426D"/>
<path fill-rule="evenodd" clip-rule="evenodd" d="M57.9257 8.06538C58.2138 7.38641 58.3578 6.62514 58.3578 5.84329C58.3578 2.61302 55.7242 0 52.4939 0C49.2636 0 46.6506 2.61302 46.6506 5.84329C46.6506 5.94617 46.6507 6.04904 46.6712 6.15192H11.2206C5.04807 6.15192 0.00720215 11.1928 0.00720215 17.3447V57.7539C0.00720215 63.9058 5.04807 68.9467 11.2206 68.9467H51.6915C57.8434 68.9467 62.9049 63.9058 62.9049 57.7539V17.3653C62.9049 13.4972 60.9091 10.0817 57.9257 8.06538Z" fill="#00426D"/>
<path fill-rule="evenodd" clip-rule="evenodd" d="M55.9289 25.0397V37.5493V50.0795V62.589H49.0775V55.8816L48.666 57.1161L48.1516 58.33L47.5549 59.4616L46.876 60.4904L46.5056 60.943L46.1146 61.3545L45.2711 62.0129L44.8185 62.2598L44.3452 62.4656L43.872 62.5685L43.3782 62.589H36.4033L34.8601 51.458L38.3373 51.5403L39.4072 51.5197L40.4771 51.458L41.547 51.2317L42.0614 51.0671L42.514 50.8407L42.7198 50.5938L42.8844 50.2852L43.0284 49.9972L43.1313 49.668L43.193 49.2976L43.2136 48.9067L43.193 48.0837L43.049 47.2195L42.8021 46.3348L42.514 45.4295L42.1643 44.5654L38.1521 36.5823L41.3001 30.5127L41.7322 29.5251L42.082 28.6609L42.3083 27.8791L42.4729 27.1795L42.514 26.5417L42.4935 26.0068L42.4112 25.5335L42.2466 25.122L42.0202 24.7723L41.7322 24.4842L41.3824 24.2579L40.9709 24.0727L40.5389 23.9287L40.0656 23.8464L39.5307 23.7847H38.9751H36.1975L36.3004 25.6158L36.321 27.4676L36.2593 29.3193L36.0946 31.1711L35.8889 32.9817L35.6009 34.7511L35.2511 36.4177L35.0454 37.1995L34.8601 37.9608L34.6133 38.7632L34.3046 39.5656L33.6051 41.2528L33.1936 42.1375L32.7615 43.0222L31.7328 44.8123L31.1978 45.7381L30.6217 46.6434L29.3666 48.4746L28.0499 50.2646L27.3503 51.1493L26.6713 52.0341V62.589H21.0955V56.6223L19.8816 62.589H6.98108V50.0795V37.5493V25.0397V12.5302H13.8326L13.7914 32.0146L13.7708 51.5403H21.0955V38.6604V25.801H26.6713V38.9072L27.2269 37.9608L27.8853 36.8086L28.5436 35.533L29.1815 34.1544L29.7575 32.7142L30.2308 31.2534L30.4365 30.5127L30.56 29.8131L30.6423 29.093L30.6834 28.4346L30.6217 26.912L30.4365 25.8216L30.2719 25.4512L30.1074 25.1426L29.9016 24.8957L29.6753 24.7311L29.1198 24.5665L28.4614 24.5254L26.8359 24.5871H19.5318L21.0955 12.5919H28.3996L29.0992 12.6124L29.7987 12.7359L30.3954 12.9005L31.0126 13.1474L31.5682 13.456L32.0825 13.8058L32.5969 14.2173L33.029 14.6905L33.4816 15.1843L33.852 15.781L34.531 17.0155L34.8396 17.715L35.107 18.4352L35.354 19.1759L35.5391 19.9783L36.5679 12.5302H42.2671L42.9461 12.5713L43.584 12.7359L44.16 12.9622L44.7361 13.2503L45.2916 13.6618L45.7855 14.135L46.2587 14.6905L46.6702 15.3078L47.0817 15.9662L47.4315 16.6863L47.7195 17.4887L47.9664 18.3117L48.1721 19.1759L48.3162 20.0812L48.4191 21.0276L48.4396 21.9946L48.3985 24.1962L48.2545 26.1302L48.0076 27.8996L47.8635 28.7638L47.699 29.5662L47.2875 31.1711L46.8142 32.7759L45.662 36.2325L46.4027 37.9608L47.308 40.2035L48.2545 42.8576L48.7071 44.2979L49.0775 45.7999V29.1547V12.5302H55.9289V25.0397Z" fill="white"/>
<path fill-rule="evenodd" clip-rule="evenodd" d="M52.4929 10.8225C49.7564 10.8225 47.5138 8.57981 47.5138 5.84334C47.5138 3.10687 49.7564 0.864197 52.4929 0.864197C55.2294 0.864197 57.4721 3.10687 57.4721 5.84334C57.4927 8.57981 55.2499 10.8225 52.4929 10.8225Z" fill="#ED1C24"/>
<path d="M20.54 77.8967C20.7046 77.8762 20.8075 77.8967 20.8898 77.9379C20.9721 77.9996 21.0132 78.0819 21.0338 78.1848C21.0132 78.37 21.0132 78.514 20.9927 78.6374C20.9721 78.8638 20.9309 79.0695 20.9103 79.2135C20.8692 79.3576 20.8486 79.4604 20.8486 79.5222C20.8075 79.6662 20.7458 79.7896 20.684 79.9131C20.6017 80.0365 20.4989 80.1394 20.3754 80.2423C20.252 80.3452 20.1285 80.448 20.0462 80.4892C19.9639 80.5303 19.9022 80.5715 19.861 80.5715C19.7582 80.5715 19.6553 80.5715 19.5524 80.5715C19.4701 80.5715 19.3672 80.5921 19.2643 80.6126C19.182 80.5715 19.0998 80.4892 19.038 80.3863C18.9557 80.2629 18.9352 80.0983 18.894 79.8925C18.8734 79.7073 18.9557 79.4604 19.1409 79.1518C19.3261 78.8432 19.5112 78.658 19.6758 78.6169C19.7581 78.4728 19.861 78.3082 19.9844 78.1231C20.0462 78.0819 20.1079 78.0202 20.2108 77.979C20.3137 77.9379 20.4166 77.8967 20.54 77.8967Z" fill="#ED1C24"/>
<path d="M51.855 73.5555C52.0196 73.535 52.1225 73.5555 52.2048 73.5967C52.2871 73.6584 52.3282 73.7407 52.3488 73.8642C52.3282 74.0493 52.3283 74.1933 52.3283 74.2962C52.2871 74.5225 52.2665 74.7077 52.2254 74.8723C52.2048 75.0163 52.1842 75.1192 52.1636 75.1809C52.1225 75.325 52.0608 75.469 51.999 75.5719C51.9167 75.6747 51.8139 75.7982 51.6904 75.9011C51.567 76.0245 51.4641 76.1068 51.3612 76.148C51.2583 76.1891 51.1966 76.2303 51.176 76.2303C51.0732 76.2303 50.9703 76.2303 50.8674 76.2508C50.7645 76.2508 50.6823 76.2714 50.5794 76.2714C50.4971 76.2303 50.4148 76.1685 50.353 76.0451C50.2913 75.9216 50.2296 75.757 50.209 75.5513C50.1884 75.3661 50.2707 75.1192 50.4559 74.8106C50.6411 74.502 50.8057 74.3168 50.9909 74.2756C51.0732 74.1316 51.1761 73.967 51.2995 73.7818C51.3612 73.7407 51.4229 73.679 51.5258 73.6378C51.6081 73.5967 51.7316 73.5761 51.855 73.5555Z" fill="#ED1C24"/>
<path d="M78.9728 0H78.2527V94.1922H78.9728V0Z" fill="#00426D"/>
<path d="M103.169 63.2886L98.5396 57.9597H97.7989V63.2886H94.3217V49.133H97.7989V54.75H98.3133L103.128 49.133H107.304L101.297 56.2314L107.737 63.2886H103.169Z" fill="#00426D"/>
<path d="M118.518 63.2886L117.53 60.7167H111.564L110.576 63.2886H106.831L112.757 49.133H116.337L122.263 63.2886H118.518ZM114.547 53.0628L112.757 57.7128H116.378L114.547 53.0628Z" fill="#00426D"/>
<path d="M138.928 63.2886H135.554V56.2314L131.851 63.2886H129.711L125.987 56.1902V63.2886H122.612V49.133H126.028L130.781 57.8979L135.533 49.133H138.928V63.2886Z" fill="#00426D"/>
<path d="M147.508 49.133C149.092 49.133 150.368 49.5856 151.294 50.4704C152.24 51.3551 152.693 52.5484 152.693 54.0093C152.693 55.5112 152.22 56.7046 151.253 57.6099C150.286 58.5152 148.989 58.9678 147.343 58.9678H144.01V63.3091H140.533V49.1536H147.508V49.133ZM147.117 56.0462C147.796 56.0462 148.331 55.861 148.722 55.5112C149.113 55.1409 149.298 54.6677 149.298 54.071C149.298 53.4949 149.092 53.0217 148.701 52.6719C148.31 52.3221 147.775 52.1369 147.117 52.1369H144.031V56.0668H147.117V56.0462Z" fill="#00426D"/>
<path d="M166.375 56.9103C166.375 58.9472 165.799 60.5521 164.647 61.7866C163.495 63.0005 161.972 63.6178 160.1 63.6178C158.166 63.6178 156.623 63.0005 155.45 61.7866C154.277 60.5727 153.681 58.9472 153.681 56.9103V49.133H157.158V56.9103C157.158 57.9802 157.425 58.8238 157.96 59.4616C158.495 60.0789 159.215 60.4081 160.1 60.4081C160.944 60.4081 161.622 60.0995 162.137 59.4616C162.651 58.8444 162.898 57.9802 162.898 56.9103V49.133H166.375V56.9103Z" fill="#00426D"/>
<path d="M177.383 49.8943C178.432 50.6145 179.09 51.6226 179.358 52.8983L175.942 53.5978C175.819 52.96 175.51 52.4662 175.058 52.137C174.585 51.7872 174.07 51.6226 173.473 51.6226C172.918 51.6226 172.445 51.7667 172.095 52.0341C171.745 52.3016 171.56 52.6514 171.56 53.0629C171.56 53.6801 171.951 54.0711 172.712 54.2562L175.654 54.9146C178.247 55.4907 179.543 56.8693 179.543 59.0296C179.543 60.4904 178.988 61.6015 177.877 62.4039C176.765 63.2063 175.366 63.6178 173.72 63.6178C172.074 63.6178 170.675 63.2475 169.523 62.4862C168.371 61.7249 167.713 60.6756 167.527 59.3177L171.128 58.6181C171.457 60.0172 172.404 60.7168 173.926 60.7168C174.585 60.7168 175.078 60.5727 175.449 60.3053C175.819 60.0378 176.004 59.688 176.004 59.2559C176.004 58.9267 175.901 58.6593 175.716 58.4535C175.531 58.2478 175.181 58.1037 174.687 58.0009L171.725 57.363C169.194 56.7869 167.918 55.4084 167.918 53.2686C167.918 51.9107 168.433 50.8202 169.461 50.0178C170.49 49.2154 171.848 48.8039 173.515 48.8039C175.037 48.8244 176.333 49.1742 177.383 49.8943Z" fill="#00426D"/>
<path d="M192.032 52.1781V63.2886H188.576V52.1781H183.987V49.133H196.62V52.1781H192.032Z" fill="#00426D"/>
<path d="M206.414 63.2886L205.427 60.7167H199.46L198.472 63.2886H194.728L200.653 49.133H204.233L210.159 63.2886H206.414ZM202.443 53.0628L200.653 57.7128H204.274L202.443 53.0628Z" fill="#00426D"/>
<path d="M219.582 49.8943C220.632 50.6145 221.29 51.6226 221.557 52.8983L218.142 53.5978C218.018 52.96 217.71 52.4662 217.257 52.137C216.784 51.7872 216.27 51.6226 215.673 51.6226C215.117 51.6226 214.644 51.7667 214.294 52.0341C213.945 52.3016 213.76 52.6514 213.76 53.0629C213.76 53.6801 214.15 54.0711 214.912 54.2562L217.854 54.9146C220.446 55.4907 221.743 56.8693 221.743 59.0296C221.743 60.4904 221.187 61.6015 220.076 62.4039C218.965 63.2063 217.566 63.6178 215.92 63.6178C214.274 63.6178 212.875 63.2475 211.723 62.4862C210.57 61.7249 209.912 60.6756 209.727 59.3177L213.327 58.6181C213.657 60.0172 214.603 60.7168 216.126 60.7168C216.784 60.7168 217.278 60.5727 217.648 60.3053C218.019 60.0378 218.204 59.688 218.204 59.2559C218.204 58.9267 218.101 58.6593 217.916 58.4535C217.73 58.2478 217.381 58.1037 216.887 58.0009L213.924 57.363C211.393 56.7869 210.118 55.4084 210.118 53.2686C210.118 51.9107 210.632 50.8202 211.661 50.0178C212.69 49.2154 214.048 48.8039 215.714 48.8039C217.257 48.8244 218.553 49.1742 219.582 49.8943Z" fill="#00426D"/>
<path d="M226.413 49.133H222.936V63.2886H226.413V49.133Z" fill="#00426D"/>
<path d="M236.886 63.2886L232.256 57.9597H231.516V63.2886H228.039V49.133H231.516V54.75H232.03L236.845 49.133H241.021L235.014 56.2314L241.453 63.2886H236.886Z" fill="#00426D"/>
<path d="M258.098 63.2886H254.724V56.2314L251.021 63.2886H248.86L245.136 56.1902V63.2886H241.762V49.133H245.198L249.951 57.8979L254.704 49.133H258.098V63.2886Z" fill="#00426D"/>
<path d="M270.155 63.2886L269.168 60.7167H263.201L262.213 63.2886H258.469L264.394 49.133H267.974L273.9 63.2886H270.155ZM266.184 53.0628L264.394 57.7128H268.016L266.184 53.0628Z" fill="#00426D"/>
<path d="M284.723 63.2886H274.25V49.133H277.748V60.2435H284.723V63.2886Z" fill="#00426D"/>
<path d="M296.265 63.2886L295.277 60.7167H289.311L288.323 63.2886H284.578L290.504 49.133H294.084L300.01 63.2886H296.265ZM292.294 53.0628L290.504 57.7128H294.125L292.294 53.0628Z" fill="#00426D"/>
<path d="M305.976 63.2886H302.438V58.8855L296.965 49.133H300.771L304.248 55.3466L307.705 49.133H311.593L305.976 58.8444V63.2886Z" fill="#00426D"/>
<path d="M320.255 63.2886L319.268 60.7167H313.301L312.313 63.2886H308.569L314.494 49.133H318.074L324 63.2886H320.255ZM316.264 53.0628L314.474 57.7128H318.095L316.264 53.0628Z" fill="#00426D"/>
</svg>
